<svg version="1.0" xmlns="http://www.w3.org/2000/svg" width="933.333" height="933.333" viewBox="0 0 700 700"><path d="M372 5c.8.5 2.2.9 3 .9 1 0 .8-.3-.5-.9-2.7-1.2-4.3-1.2-2.5 0zM332.8 6.5c-.2.3-6.7 1.2-14.4 2-7.6.8-17.7 2.2-22.4 3-4.7.9-13.4 2.5-19.3 3.5-21.2 3.7-33 8-48.9 17.7-4.7 2.9-13.2 7.6-18.7 10.4-5.5 2.8-10.6 5.8-11.2 6.5-.6.8-1.8 1.4-2.5 1.4-.8 0-1.4.5-1.4 1 0 .6 1.9 0 4.3-1.4 24.1-14.1 50.2-26 65.7-29.9 15-3.8 39.1-8.7 47.5-9.6 29-3.3 32.7-3.5 46.4-2.2 12.9 1.1 39.4 5.8 34.2 6-1.4.1-3.8.5-5.5 1.1-7.8 2.4-22.5 4.4-37.6 5.1-44.7 2-71 6.2-100.4 16-14.8 5-47 19-53.6 23.3-1.9 1.3-5.5 3.2-8 4.3-2.5 1.1-8.5 4.5-13.3 7.6-4.8 3.2-10.9 6.8-13.5 8.1-2.6 1.3-8.1 5.1-12.2 8.3-10.4 8.3-31.4 28.2-35.2 33.4-1.7 2.3-6.7 8.1-11.2 12.8-4.5 4.7-9.4 10.4-10.9 12.6-1.4 2.2-5 6.3-7.9 9.2-7.5 7.3-8.7 8.5-10.8 11.3-1.7 2.2-1.8 2.3-1.4.4.6-2.3 11.3-17 16.3-22.3 1.7-1.8 3.1-3.8 3.1-4.3 0-.6-2.1 1.4-4.7 4.3-20.3 22.4-35.4 49-49.2 86.5-2.9 7.6-6.1 15.9-7.3 18.4-2.9 6.3-6.1 22.7-5.2 27 .6 3.1 1.2 1.4 4.9-13 4.6-17.9 9.4-31.3 12.6-35.4 2.4-3.1 4.5-3.5 2.9-.7-1.5 3-11.9 32.9-13.6 39.6-.9 3.3-2.3 9.8-3.1 14.5-5.5 32.6-6.3 38.8-6.7 51.5l-.5 14 .9-12.9c.5-7.1 2-18.5 3.4-25.5 1.3-6.9 3.2-16.7 4.1-21.6 4.7-25.9 12.7-48.3 20.5-57.1 2.8-3.3 3.4-4.4 3.1-6.9 0-.6.9-2.1 2-3.5l2.1-2.5-.5 2.3c-.5 2.3-.5 2.3 1.4.6 2.3-2.1 2.4-1.7.3 3.2-1.8 4.2-3.7 10.6-8.9 30.4-1.9 6.9-4.7 16.1-6.2 20.5-1.6 4.4-2.7 8.7-2.5 9.6.1.9-.6 8.8-1.8 17.5-2.9 22.7-3.4 34.7-2.1 53.2 1.8 25.2 6.5 56.7 10.3 68.2.6 1.9 1.2 5.3 1.4 7.5.1 2.2.5 6.2.8 9 .7 5.7.8 5.7-5.4-8.5-4.5-10.5-5.9-12.4-10.7-14.6-3.3-1.6-3.7-2.3-4.7-8.5-.5-2.6-1.1-3.6-2.3-3.5-1.2.1-1.9-1.1-2.6-4.4-.9-4.9-2.7-7.7-2.7-4.4 0 1 .5 3.5 1.1 5.4.6 1.9 1.2 9.8 1.4 17.5.3 15.6.8 18.4 7.1 40.5 5.4 18.8 10.8 33 18 46.9 3 5.7 5.4 10.9 5.4 11.5 0 .6 1.4 3.1 3 5.6 1.6 2.5 3 5.5 3 6.7 0 2.4 1.6 4 2.2 2.2.2-.5 3.1 2.7 6.4 7.3 3.3 4.6 10.5 13.2 16 19.1 5.4 6 11.1 12.5 12.7 14.5 8.4 11.2 10.3 13.2 13 13.8 1.9.4 7.1 4.7 14.6 11.9 6.4 6.1 14.8 13.6 18.8 16.6 15.8 11.9 24.3 18 30.1 21.4 3.3 1.9 7.3 4.6 8.9 5.8 15 12.3 42.3 24.6 69.2 31.3 8 2 15.5 4.1 16.6 4.7 2.8 1.4 6 2.1 33 7.1 30.5 5.7 37.5 6.2 59.8 4.2 9.8-.9 18.6-1.6 19.5-1.7.9-.1.4-.4-1.3-.8-1.6-.4-10.9-.3-20.5.1-24.7 1.1-30.2 1-44.1-1.2-14.2-2.3-25.3-4.8-22.4-5l2-.1-2-.9c-1.6-.7-1.4-.9 1.5-.9 1.9-.1 7-.8 11.3-1.6 4.7-.9 13.7-1.5 22-1.5 20.9 0 51.6-1.7 64.7-3.5 19.7-2.8 42.7-8.5 58.5-14.6 10.4-4 56.8-26.4 62-29.9 2.2-1.5 6.2-3.7 8.8-4.8 5.6-2.5 20.3-13 29.6-21.1 3.5-3.1 8.5-7.4 11.2-9.6 2.6-2.2 6.1-5.9 7.7-8.1 1.7-2.3 6.8-7.4 11.4-11.5 4.5-4 9.1-8.6 10.1-10.3 2.2-3.5 15.3-16.6 16.7-16.6.5 0 2.1-1.7 3.5-3.7 1.4-2.1 2.5-3.1 2.5-2.2 0 1.8-14 18.5-15.2 18.1-.5-.1-.7.2-.3.8.3.5.2 1-.3 1s-2.2 1.7-3.7 3.7c-2.6 3.5-2.3 3.4 2.5-1.2 20.2-19.2 40.7-51.7 55-87 2.9-7.2 6.1-14.7 7.2-16.8 2.9-5.7 5.6-15.4 6.3-22.2.8-8-.6-5.6-4 6.9-5.2 19.5-14.3 40.6-17.4 40.6-.6 0 .6-3.7 2.6-8.3 6.3-14.3 14-36.9 15.3-44.7.6-4.1 2.5-12.8 4.2-19.3 1.6-6.5 3.6-15.5 4.4-20 1.5-8 3.2-39.7 2.1-38.7-.3.3-1.5 9.1-2.7 19.5-2.6 23.5-3.9 30.6-9.7 51.5-7.4 26.6-14.8 44.8-21 51.4-3.2 3.5-5.3 7.1-5.3 9.2 0 1.1-.9 2.9-2 3.9s-2 1.5-2 1.2c0-.4 3.1-7.3 6.9-15.5 13.9-29.8 21.6-55.2 26.8-88.2 2.5-16.3 2.6-65.3 0-82-1.5-10.3-5.6-29.9-7.3-35.4-.6-2-.6-2.1 1.4-.3 1.1 1 2.3 3.4 2.7 5.4.4 2.2 1.3 3.7 2.5 4 1 .3 2.1 1 2.3 1.7.6 1.4 3.4 20.3 4.5 29.5.4 3.7 1.2 6.6 2 6.9 1.7.5 1.5-2.2-.8-15.2-4.9-27.4-5.9-39-3.9-42.8.8-1.4.8-3.8-.1-8.6-2.3-13.9-21.9-63.1-29.1-73.4-1.1-1.5-2.6-4.5-3.4-6.8-.8-2.3-2.8-5.9-4.5-8-1.6-2.1-3-4.9-3-6.3 0-2.8-1.6-4.5-2.2-2.5-.3.7-2.4-1.4-4.9-4.7-2.4-3.3-11-12.8-19.1-21-8.1-8.3-16.6-17.4-18.9-20.3-2.7-3.4-4.8-5.2-6.2-5.2-1.3 0-8.7-5.3-18.2-13-8.8-7.2-19.4-15.3-23.5-18-4.1-2.7-10.6-7.1-14.5-9.8-3.8-2.7-9.2-6.2-12-7.8-2.7-1.5-5.6-3.6-6.3-4.6-3.3-4.5-29.7-17.3-47.9-23.1-5.9-2-16-4.5-22.3-5.7-6.3-1.1-15.1-3.2-19.5-4.6-4.4-1.3-12.9-3.1-19-3.9-6-.9-11.7-1.8-12.5-2-7.4-2.3-44.5-4.7-46.2-3zM448 31c5.2.5 12 1.6 15 2.4 8.7 2.3 21.3 8.1 29.2 13.4 4 2.7 12.1 7.7 18 11.1 17.1 10 17.3 12.6.2 4.2-5.5-2.6-12.5-5.6-15.5-6.5-3.1-.8-6.7-2.4-8-3.5-6.4-5-23.3-12.2-40.5-17.1-9.8-2.9-18.1-5.5-18.4-5.8-.3-.2 2-.2 5 .2s9.8 1.1 15 1.6zm-24.9 3.5c3 .9 7.4 1.8 9.9 2.1 6 .8 34.6 9.2 39 11.4 1.9 1 6.6 3.1 10.3 4.6 6.3 2.5 23.9 12.4 26.2 14.7.7.7.6.8-.2.3-.7-.4-1.3-.5-1.3-.2s5.3 4.1 11.8 8.4c16.4 11 30.9 22.8 32.9 26.5l1.6 3.2-2.4-2c-1.3-1-5.1-4.5-8.4-7.6-7.1-6.9-11-9.1-41-23.6-34.9-17-56-24.8-90-33.3-15.9-4-18.4-4.9-15.5-5.4 10.2-1.7 18.5-1.5 27.1.9zM309.5 47.1c-2.7.4-7.9 1.3-11.5 1.9-23.1 3.9-41.2 9.2-61.3 18.1-8.7 3.8-17.5 8-19.6 9.3-2 1.3-7.1 4.1-11.2 6.1-4 2.1-9.9 5.3-12.9 7.2l-5.5 3.4 8-7.7c8.3-7.9 12.4-10.3 28.9-17.4 29.7-12.6 65.7-21.8 85.1-21.8h5l-5 .9zm41.9 20.8c2.3 2.5 2.3 4.5.2 15.6-3.6 19 1.8 39.8 14.8 57.1 5.5 7.3 7.6 9.1 32.1 26.6 24.3 17.3 33.8 25 45.1 36.3 26.4 26.6 37.2 56 32 87.3-1 5.6-2.8 13.3-4 17l-2.3 6.7 3.8 4.3c12.3 13.9 2.1 37.2-17.3 39.8l-4.8.7V384c0 24-.1 24.8-2.3 28.1-3.6 5.5-9.6 7.9-19.4 7.9-4.9 0-8.3.4-8.3 1 0 3.9-21.1 182.4-22 186-1.4 5.5-5.8 10.3-10.9 11.9-2.6.7-18.6 1.1-51 1.1-40.2 0-47.7-.2-50.8-1.5-4.5-1.9-7-4.1-8.9-7.7-.8-1.6-5.5-38.1-11.9-93-5.7-49.6-10.7-92-11.1-94.1l-.6-3.7h-8.2c-10.3 0-16-2.5-19.3-8.5-2.2-3.8-2.3-5-2.3-28.3 0-22.7-.1-24.2-1.8-24.2-8.4 0-18.4-6.9-22.3-15.3-3.9-8.7-1.5-20.3 5.7-27.3l4.5-4.3-1-9.8c-2.9-27.6 5.9-53.2 25.4-74.2 4.2-4.5 4.2-4.7 4.8-13.6 1.2-18.8 10.5-36.8 26.6-51.7l6.9-6.3.7-7.5c1.4-15.7 6.6-30.1 14.8-41.4 9.8-13.4 27.5-28 44.1-36.2 11.9-5.8 16.2-6.6 19-3.5zm-218.5 69.7c-4.6 4.8-17 14.4-18.5 14.4-1.9 0 3.1-4.9 11.5-11.4 5.5-4.2 10.3-8.1 10.7-8.7.3-.6.9-.8 1.2-.4.3.3-1.9 3-4.9 6.1zM104.4 172c-2.6 3.8-5 7-5.5 7-.7 0-2.2 2.5-9.6 15.5-3 5.3-3.3 5.6-2.7 2.5.6-3.1.5-3.3-1-2.1-.9.7-1.6 2.7-1.6 4.4 0 2.6-3.4 9.7-4.6 9.7-1.3 0 1.2-8.3 4.3-13.8 7.4-13.4 15.2-24 20.1-27.1 2.6-1.6 4.8-3 5-3 .1-.1-1.9 3-4.4 6.9zM54.7 436.7c-.3 1-.5.4-.5-1.2 0-1.7.2-2.4.5-1.8.2.7.2 2.1 0 3zM64.9 486c0 1-.3.8-.9-.5-1.2-2.7-1.2-4.3 0-2.5.5.8.9 2.2.9 3zm39.5 51.3c6.7 10 7.5 11.3 5.5 10.1-1.4-.8-12.9-18.5-12.9-19.8 0-1.3 0-1.3 7.4 9.7zm59.6 58.2c18.5 11.9 15.9 11.2-5.2-1.5-11.6-7-14.7-9.4-23.9-19.1-6.5-6.7-11-12.3-11.6-14.3-.9-2.8 1.6-.7 14.6 12.4 12.3 12.5 17.8 17.2 26.1 22.5zm-45.6-33.9c.7 1.9.2 1.8-1.9-.6-1.6-1.7-1.6-2-.3-1.5.9.4 1.9 1.3 2.2 2.1zm10.1 10.4c2.1 2.2 3.6 4.2 3.4 4.5-.3.2-2.5-1.6-4.9-4-2.4-2.5-4-4.5-3.4-4.5.5 0 2.7 1.8 4.9 4zm7 8c.3.5.1 1-.4 1-.6 0-1.1-.5-1.1-1 0-.6.2-1 .4-1 .3 0 .8.4 1.1 1zm3.1 11.6c1.5 1.9 2.5 3.6 2.3 3.9-.6.6-10.9-9.3-10.9-10.6 0-1.6 5.6 2.8 8.6 6.7zm8.5 9.1c1.3 1.6 1.2 1.7-.3.4-1.7-1.3-2.2-2.1-1.4-2.1.2 0 1 .8 1.7 1.7zm12.4 8.4c.4.5 1.4.9 2.5.9 1 0 4.7 1.8 8.1 3.9 17.1 10.7 20.8 12.7 25.9 14.7 3 1.1 12.2 5.1 20.4 8.8 21.4 9.6 37.4 15.2 67.6 23.8l4.5 1.3-8.2.3c-4.6.2-8.3.7-8.3 1.3 0 1.1-1.6.8-19-4.2-19.3-5.5-51.4-17.9-59.3-22.9-7.8-4.9-8.7-6-2-2.5 2.5 1.4 4.8 2.3 5.1 2 .7-.7 1.4-.2-12.8-9-13.2-8.1-31.7-21.2-34.1-24.1-.7-.9 1-.2 3.9 1.5 2.8 1.8 5.4 3.7 5.7 4.2zm29.5 1c1.7 1.3 1.8 1.7.5 1-3.3-1.7-5.1-3.1-4-3.1.6 0 2.1 1 3.5 2.1zm-16.9 19.3c6.6 3.6 14.1 7.3 16.7 8.2 2.6 1 5.6 2.5 6.7 3.4 4 3.5 26.4 14.2 40.5 19.5 13.4 5 16 7.4 4.4 4.1-2.7-.8-7.6-1.7-10.8-2-12.4-1.3-31.8-9.4-42.1-17.5-2.7-2.2-9.9-7.3-16-11.4-18.4-12.3-18.1-14.3.6-4.3zm304.4-1.5c-1.5 1.3-19.8 8.5-31.7 12.4-25 8.3-48.6 12.7-70.8 13.2-18.2.5-17.8-.1 1-1.5 22.8-1.6 40-5.3 74.5-16 12.6-4 23.6-7.6 24.5-8 2-1.2 3.7-1.3 2.5-.1zm-187.8 53.7c-.3.3-1.2.4-1.9.1-.8-.3-.5-.6.6-.6 1.1-.1 1.7.2 1.3.5z"/><path d="M327.5 89.6c-24.8 14.9-37.8 34.6-39.2 59.1-1.3 21.5 6.5 37.7 24.6 51.5 8 6 30 17 47.1 23.4 6.9 2.6 13.7 5.5 15.1 6.5 5.1 3.6 4.5 10.5-1.2 13.4-3.1 1.6-3.4 1.6-17.3-3.5-46.2-17-70.3-35.6-79.8-61.4l-2.2-5.9-3.8 4.4c-5.4 6.1-11.2 16.2-13.9 23.9-3.2 9.3-3.3 25.6-.2 35.5 8.9 28.2 38.5 50 84.3 61.8 24 6.3 45.3 8.7 83.7 9.4l30.2.6 1.2-2.9c7-18.3 6.6-40.6-1.1-59.5-3.2-8-11.8-21.1-19-29.2-7.1-7.8-21-19.3-39.2-32.2-23.1-16.4-29.7-21.5-35.6-27.5-16.5-16.7-26.1-39.3-26.2-61.8 0-5-.3-9.2-.7-9.2-.5 0-3.5 1.6-6.8 3.6z"/><path d="M237.6 247.4c-9.7 12.8-16.6 36.4-15.1 52.1 1.1 11.3.3 10.5 10.5 10.5 7.7 0 9.3.3 11 2 2.7 2.7 2.5 6.6-.5 9.5-2.3 2.4-3 2.5-14.9 2.5h-12.4l-2.2 3.5c-2.8 4.5-2.1 9.5 1.7 12.5 2.5 2 3.5 2 88.5 2 86.4 0 88.8.1 91 3.4 1.6 2.3.8 7.3-1.5 9.4l-2.3 2.2-76.5.2-76.4.3-.3 22.2-.2 22.3h196v-44h-5.1c-6.3 0-11.7-2.4-12.5-5.6-1-4.1.4-7.1 4.2-8.9 3.1-1.4 6.1-1.7 19.7-1.4l16.1.4 1.9-3.3c2.5-4.2 1.6-9.3-2-12.2-2.4-1.9-3.9-2-26.2-2-13 0-30.1-.5-38.1-1-76.2-5.4-127.8-30.7-147.6-72.3-2-4.3-3.7-7.7-3.9-7.7-.1 0-1.4 1.5-2.9 3.4zM287.8 431.2l12.2 12.3 12.2-12.3 12.3-12.2h-49l12.3 12.2zM361.8 431.2l12.2 12.3 12.2-12.3 12.3-12.2h-49l12.3 12.2zM323.9 441.7c-6.5 6.4-11.9 12.1-11.9 12.7 0 .6 5.6 6.7 12.4 13.5l12.5 12.4 5.8-5.1c3.2-2.8 9.2-8.5 13.3-12.6l7.5-7.6-12.5-12.5c-6.9-6.9-13.1-12.5-13.8-12.5-.8 0-6.7 5.2-13.3 11.7zM393.6 446.1c-4.2 3.9-7.6 7.6-7.6 8.3 0 1.3 11.7 13.2 12.3 12.5.7-.7 3.9-27 3.4-27.5-.2-.3-3.9 2.7-8.1 6.7zM361.7 477.6c-7 6.9-12.7 12.8-12.7 13.2 0 .4 5.6 6.3 12.5 13.2l12.5 12.5 10.9-10.9c9.2-9.2 11.1-11.6 11.6-14.9.7-3.8.5-4.2-5.1-9.9-3.3-3.3-8.4-8.1-11.4-10.8l-5.5-4.8-12.8 12.4zM288.4 476.8c-11 10.6-11.1 10.7-10.7 14.7.4 3.5 1.8 5.3 10.6 14.2 5.6 5.7 10.6 10.3 11.2 10.3.6 0 6.7-5.7 13.7-12.8l12.7-12.7-12.9-12.3c-7-6.7-13-12.2-13.2-12.2-.2.1-5.3 4.9-11.4 10.8zM324.3 514.2C317.5 521 312 527 312 527.5c0 .6 5.6 6.6 12.5 13.5l12.4 12.4 11.3-10.9c6.2-5.9 12.3-11.8 13.6-13l2.3-2.1-12.6-12.5c-6.9-6.8-13.1-12.5-13.8-12.7-.7-.1-6.7 5.3-13.4 12zM282 523.7c0 1.7.3 4.5.6 6.2l.7 3.2 2.3-2.2c3.1-2.9 3-3.9-.6-7.4l-3-2.9v3.1zM388.2 524.3c-2.8 2.9-2.8 3.8.2 6.6l2.3 2.2.7-2.3c.9-3.3.7-8.8-.2-8.8-.5 0-1.8 1-3 2.3zM292.4 546.2l-7 7.3.9 7.7.9 7.8h20.9c11.5 0 20.9-.3 20.9-.7 0-.8-28.2-29.3-29-29.3-.3 0-3.7 3.3-7.6 7.2zM358.7 553.3c-8.1 7.8-14.7 14.5-14.7 14.9 0 .5 9.6.8 21.4.8h21.4l1-7.8 1-7.7-7.1-7.3c-4-3.9-7.4-7.2-7.7-7.1-.3 0-7.1 6.4-15.3 14.2zM289.3 588.2c.3 2.4.9 6.7 1.2 9.5l.7 5.3h91.5l.7-6.3c.4-3.4.9-7.7 1.3-9.5l.5-3.2h-96.4l.5 4.2zM205 641.5c1.4.8 3 1.4 3.5 1.4.6 0-.1-.6-1.5-1.4-1.4-.8-2.9-1.4-3.5-1.4-.5 0 .1.6 1.5 1.4zM385.8 14.7c.7.3 1.6.2 1.9-.1.4-.3-.2-.6-1.3-.5-1.1 0-1.4.3-.6.6zM180 59.6c-8.9 4.9-24.3 15.1-17.2 11.5 2.9-1.5 23.4-13.9 24-14.6 1.1-1.1-.5-.3-6.8 3.1zM551.1 78.4c.2.2 4.4 3.4 9.4 7 14 10.4 26.9 22.1 36.3 33 4.8 5.5 11 12.5 13.8 15.6 2.8 3 6.1 7.5 7.3 9.8 1.3 2.4 2.5 4.1 2.8 3.8.3-.3-.9-3.3-2.6-6.7-1.8-3.3-3-6.3-2.7-6.6.7-.8-18.9-21.2-31.3-32.6C571.7 90.2 555.5 78 552.8 78c-1.2 0-1.9.2-1.7.4zM43.5 201.1c-.4.6-.5 1.2-.2 1.5.2.3.7-.2 1-1.1.7-1.7.1-2-.8-.4zM37 287.1c-.7 1.1-1 2.3-.7 2.5.2.2.9-.7 1.5-2.1 1.4-3 .7-3.3-.8-.4zM672.2 328c0 1.4.2 1.9.5 1.2.2-.6.2-1.8 0-2.5-.3-.6-.5-.1-.5 1.3zM672.1 351.6c0 1.1.3 1.4.6.6.3-.7.2-1.6-.1-1.9-.3-.4-.6.2-.5 1.3zM20.4 370.5c0 4.9.1 7.1.3 4.8.2-2.3.2-6.4 0-9-.2-2.6-.3-.8-.3 4.2zM33.1 392.6c0 1.1.3 1.4.6.6.3-.7.2-1.6-.1-1.9-.3-.4-.6.2-.5 1.3zM642.4 504.2l-1.9 2.3 2.3-1.9c1.2-1.1 2.2-2.1 2.2-2.3 0-.8-.8-.2-2.6 1.9zM65.6 544.7c.9 2.1 2.3 5.6 3.1 7.7 4 11.1 53.4 60.6 60.5 60.6 1.8 0 1.9-.2.7-1.6-.7-.9-5.4-4.9-10.4-8.9-11.7-9.4-30.1-28.5-39.1-40.5-4-5.2-8.1-10.3-9.1-11.3-1.1-1-2.8-3.5-3.8-5.7s-2.2-4-2.7-4c-.4 0-.1 1.7.8 3.7zM547.9 614.7c-1.3 1.7-1.3 1.7.6.3 1.1-.8 2.2-1.6 2.4-1.7.2-.2 0-.3-.6-.3s-1.7.8-2.4 1.7zM522 632.1c-2.2 1.8-2.2 1.9-.3 1 1.2-.6 2.5-1.6 2.8-2.1.9-1.5.3-1.2-2.5 1.1zM508.5 640c-.3.6.1.7.9.4 1.8-.7 2.1-1.4.7-1.4-.6 0-1.3.4-1.6 1zM479.2 654.1c-3 1.7-5.2 3.3-4.9 3.5.5.6 4.1-1 9.2-4.1 5.8-3.6 2-3-4.3.6zM459.4 663.9C437.2 675 426 678.7 394 685.4c-13 2.7-10.5 3.3 5.1 1.1 23.5-3.3 38-7.5 49.9-14.5 3.6-2.1 10.3-5.9 15-8.5 9.4-5.3 9.8-5.5 8.3-5.5-.5 0-6.3 2.7-12.9 5.9z"/></svg>