<?xml version="1.0" standalone="no"?>
<!DOCTYPE svg PUBLIC "-//W3C//DTD SVG 20010904//EN"
 "http://www.w3.org/TR/2001/REC-SVG-20010904/DTD/svg10.dtd">
<svg version="1.0" xmlns="http://www.w3.org/2000/svg"
 width="700.000000pt" height="700.000000pt" viewBox="0 0 700.000000 700.000000"
 preserveAspectRatio="xMidYMid meet">
<metadata>
Created by potrace 1.14, written by Peter Selinger 2001-2017
</metadata>
<g transform="translate(0.000000,700.000000) scale(0.100000,-0.100000)"
fill="#000000" stroke="none">
<path d="M3720 6950 c8 -5 22 -9 30 -9 10 0 8 3 -5 9 -27 12 -43 12 -25 0z"/>
<path d="M3328 6935 c-2 -3 -67 -12 -144 -20 -76 -8 -177 -22 -224 -30 -47 -9
-134 -25 -193 -35 -212 -37 -330 -80 -489 -177 -47 -29 -132 -76 -187 -104
-55 -28 -106 -58 -112 -65 -6 -8 -18 -14 -25 -14 -8 0 -14 -5 -14 -10 0 -6 19
0 43 14 241 141 502 260 657 299 150 38 391 87 475 96 290 33 327 35 464 22
129 -11 394 -58 342 -60 -14 -1 -38 -5 -55 -11 -78 -24 -225 -44 -376 -51
-447 -20 -710 -62 -1004 -160 -148 -50 -470 -190 -536 -233 -19 -13 -55 -32
-80 -43 -25 -11 -85 -45 -133 -76 -48 -32 -109 -68 -135 -81 -26 -13 -81 -51
-122 -83 -104 -83 -314 -282 -352 -334 -17 -23 -67 -81 -112 -128 -45 -47 -94
-104 -109 -126 -14 -22 -50 -63 -79 -92 -75 -73 -87 -85 -108 -113 -17 -22
-18 -23 -14 -4 6 23 113 170 163 223 17 18 31 38 31 43 0 6 -21 -14 -47 -43
-203 -224 -354 -490 -492 -865 -29 -76 -61 -159 -73 -184 -29 -63 -61 -227
-52 -270 6 -31 12 -14 49 130 46 179 94 313 126 354 24 31 45 35 29 7 -15 -30
-119 -329 -136 -396 -9 -33 -23 -98 -31 -145 -55 -326 -63 -388 -67 -515 l-5
-140 9 129 c5 71 20 185 34 255 13 69 32 167 41 216 47 259 127 483 205 571
28 33 34 44 31 69 0 6 9 21 20 35 l21 25 -5 -23 c-5 -23 -5 -23 14 -6 23 21
24 17 3 -32 -18 -42 -37 -106 -89 -304 -19 -69 -47 -161 -62 -205 -16 -44 -27
-87 -25 -96 1 -9 -6 -88 -18 -175 -29 -227 -34 -347 -21 -532 18 -252 65 -567
103 -682 6 -19 12 -53 14 -75 1 -22 5 -62 8 -90 7 -57 8 -57 -54 85 -45 105
-59 124 -107 146 -33 16 -37 23 -47 85 -5 26 -11 36 -23 35 -12 -1 -19 11 -26
44 -9 49 -27 77 -27 44 0 -10 5 -35 11 -54 6 -19 12 -98 14 -175 3 -156 8
-184 71 -405 54 -188 108 -330 180 -469 30 -57 54 -109 54 -115 0 -6 14 -31
30 -56 16 -25 30 -55 30 -67 0 -24 16 -40 22 -22 2 5 31 -27 64 -73 33 -46
105 -132 160 -191 54 -60 111 -125 127 -145 84 -112 103 -132 130 -138 19 -4
71 -47 146 -119 64 -61 148 -136 188 -166 158 -119 243 -180 301 -214 33 -19
73 -46 89 -58 150 -123 423 -246 692 -313 80 -20 155 -41 166 -47 28 -14 60
-21 330 -71 305 -57 375 -62 598 -42 98 9 186 16 195 17 9 1 4 4 -13 8 -16 4
-109 3 -205 -1 -247 -11 -302 -10 -441 12 -142 23 -253 48 -224 50 l20 1 -20
9 c-16 7 -14 9 15 9 19 1 70 8 113 16 47 9 137 15 220 15 209 0 516 17 647 35
197 28 427 85 585 146 104 40 568 264 620 299 22 15 62 37 88 48 56 25 203
130 296 211 35 31 85 74 112 96 26 22 61 59 77 81 17 23 68 74 114 115 45 40
91 86 101 103 22 35 153 166 167 166 5 0 21 17 35 37 14 21 25 31 25 22 0 -18
-140 -185 -152 -181 -5 1 -7 -2 -3 -8 3 -5 2 -10 -3 -10 -5 0 -22 -17 -37 -37
-26 -35 -23 -34 25 12 202 192 407 517 550 870 29 72 61 147 72 168 29 57 56
154 63 222 8 80 -6 56 -40 -69 -52 -195 -143 -406 -174 -406 -6 0 6 37 26 83
63 143 140 369 153 447 6 41 25 128 42 193 16 65 36 155 44 200 15 80 32 397
21 387 -3 -3 -15 -91 -27 -195 -26 -235 -39 -306 -97 -515 -74 -266 -148 -448
-210 -514 -32 -35 -53 -71 -53 -92 0 -11 -9 -29 -20 -39 -11 -10 -20 -15 -20
-12 0 4 31 73 69 155 139 298 216 552 268 882 25 163 26 653 0 820 -15 103
-56 299 -73 354 -6 20 -6 21 14 3 11 -10 23 -34 27 -54 4 -22 13 -37 25 -40
10 -3 21 -10 23 -17 6 -14 34 -203 45 -295 4 -37 12 -66 20 -69 17 -5 15 22
-8 152 -49 274 -59 390 -39 428 8 14 8 38 -1 86 -23 139 -219 631 -291 734
-11 15 -26 45 -34 68 -8 23 -28 59 -45 80 -16 21 -30 49 -30 63 0 28 -16 45
-22 25 -3 -7 -24 14 -49 47 -24 33 -110 128 -191 210 -81 83 -166 174 -189
203 -27 34 -48 52 -62 52 -13 0 -87 53 -182 130 -88 72 -194 153 -235 180 -41
27 -106 71 -145 98 -38 27 -92 62 -120 78 -27 15 -56 36 -63 46 -33 45 -297
173 -479 231 -59 20 -160 45 -223 57 -63 11 -151 32 -195 46 -44 13 -129 31
-190 39 -60 9 -117 18 -125 20 -74 23 -445 47 -462 30z m1152 -245 c52 -5 120
-16 150 -24 87 -23 213 -81 292 -134 40 -27 121 -77 180 -111 171 -100 173
-126 2 -42 -55 26 -125 56 -155 65 -31 8 -67 24 -80 35 -64 50 -233 122 -405
171 -98 29 -181 55 -184 58 -3 2 20 2 50 -2 30 -4 98 -11 150 -16z m-249 -35
c30 -9 74 -18 99 -21 60 -8 346 -92 390 -114 19 -10 66 -31 103 -46 63 -25
239 -124 262 -147 7 -7 6 -8 -2 -3 -7 4 -13 5 -13 2 0 -3 53 -41 118 -84 164
-110 309 -228 329 -265 l16 -32 -24 20 c-13 10 -51 45 -84 76 -71 69 -110 91
-410 236 -349 170 -560 248 -900 333 -159 40 -184 49 -155 54 102 17 185 15
271 -9z m-1136 -126 c-27 -4 -79 -13 -115 -19 -231 -39 -412 -92 -613 -181
-87 -38 -175 -80 -196 -93 -20 -13 -71 -41 -112 -61 -40 -21 -99 -53 -129 -72
l-55 -34 80 77 c83 79 124 103 289 174 297 126 657 218 851 218 l50 0 -50 -9z
m419 -208 c23 -25 23 -45 2 -156 -36 -190 18 -398 148 -571 55 -73 76 -91 321
-266 243 -173 338 -250 451 -363 264 -266 372 -560 320 -873 -10 -56 -28 -133
-40 -170 l-23 -67 38 -43 c123 -139 21 -372 -173 -398 l-48 -7 0 -247 c0 -240
-1 -248 -23 -281 -36 -55 -96 -79 -194 -79 -49 0 -83 -4 -83 -10 0 -39 -211
-1824 -220 -1860 -14 -55 -58 -103 -109 -119 -26 -7 -186 -11 -510 -11 -402 0
-477 2 -508 15 -45 19 -70 41 -89 77 -8 16 -55 381 -119 930 -57 496 -107 920
-111 941 l-6 37 -82 0 c-103 0 -160 25 -193 85 -22 38 -23 50 -23 283 0 227
-1 242 -18 242 -84 0 -184 69 -223 153 -39 87 -15 203 57 273 l45 43 -10 98
c-29 276 59 532 254 742 42 45 42 47 48 136 12 188 105 368 266 517 l69 63 7
75 c14 157 66 301 148 414 98 134 275 280 441 362 119 58 162 66 190 35z
m-2185 -697 c-46 -48 -170 -144 -185 -144 -19 0 31 49 115 114 55 42 103 81
107 87 3 6 9 8 12 4 3 -3 -19 -30 -49 -61z m-285 -344 c-26 -38 -50 -70 -55
-70 -7 0 -22 -25 -96 -155 -30 -53 -33 -56 -27 -25 6 31 5 33 -10 21 -9 -7
-16 -27 -16 -44 0 -26 -34 -97 -46 -97 -13 0 12 83 43 138 74 134 152 240 201
271 26 16 48 30 50 30 1 1 -19 -30 -44 -69z m-497 -2647 c-3 -10 -5 -4 -5 12
0 17 2 24 5 18 2 -7 2 -21 0 -30z m102 -493 c0 -10 -3 -8 -9 5 -12 27 -12 43
0 25 5 -8 9 -22 9 -30z m395 -513 c67 -100 75 -113 55 -101 -14 8 -129 185
-129 198 0 13 0 13 74 -97z m596 -582 c185 -119 159 -112 -52 15 -116 70 -147
94 -239 191 -65 67 -110 123 -116 143 -9 28 16 7 146 -124 123 -125 178 -172
261 -225z m-456 339 c7 -19 2 -18 -19 6 -16 17 -16 20 -3 15 9 -4 19 -13 22
-21z m101 -104 c21 -22 36 -42 34 -45 -3 -2 -25 16 -49 40 -24 25 -40 45 -34
45 5 0 27 -18 49 -40z m70 -80 c3 -5 1 -10 -4 -10 -6 0 -11 5 -11 10 0 6 2 10
4 10 3 0 8 -4 11 -10z m31 -116 c15 -19 25 -36 23 -39 -6 -6 -109 93 -109 106
0 16 56 -28 86 -67z m85 -91 c13 -16 12 -17 -3 -4 -17 13 -22 21 -14 21 2 0
10 -8 17 -17z m124 -84 c4 -5 14 -9 25 -9 10 0 47 -18 81 -39 171 -107 208
-127 259 -147 30 -11 122 -51 204 -88 214 -96 374 -152 676 -238 l45 -13 -82
-3 c-46 -2 -83 -7 -83 -13 0 -11 -16 -8 -190 42 -193 55 -514 179 -593 229
-78 49 -87 60 -20 25 25 -14 48 -23 51 -20 7 7 14 2 -128 90 -132 81 -317 212
-341 241 -7 9 10 2 39 -15 28 -18 54 -37 57 -42z m295 -10 c17 -13 18 -17 5
-10 -33 17 -51 31 -40 31 6 0 21 -10 35 -21z m-169 -193 c66 -36 141 -73 167
-82 26 -10 56 -25 67 -34 40 -35 264 -142 405 -195 134 -50 160 -74 44 -41
-27 8 -76 17 -108 20 -124 13 -318 94 -421 175 -27 22 -99 73 -160 114 -184
123 -181 143 6 43z m3044 15 c-15 -13 -198 -85 -317 -124 -250 -83 -486 -127
-708 -132 -182 -5 -178 1 10 15 228 16 400 53 745 160 126 40 236 76 245 80
20 12 37 13 25 1z m-1878 -537 c-3 -3 -12 -4 -19 -1 -8 3 -5 6 6 6 11 1 17 -2
13 -5z"/>
<path d="M3275 6104 c-248 -149 -378 -346 -392 -591 -13 -215 65 -377 246
-515 80 -60 300 -170 471 -234 69 -26 137 -55 151 -65 51 -36 45 -105 -12
-134 -31 -16 -34 -16 -173 35 -462 170 -703 356 -798 614 l-22 59 -38 -44
c-54 -61 -112 -162 -139 -239 -32 -93 -33 -256 -2 -355 89 -282 385 -500 843
-618 240 -63 453 -87 837 -94 l302 -6 12 29 c70 183 66 406 -11 595 -32 80
-118 211 -190 292 -71 78 -210 193 -392 322 -231 164 -297 215 -356 275 -165
167 -261 393 -262 618 0 50 -3 92 -7 92 -5 0 -35 -16 -68 -36z"/>
<path d="M2376 4526 c-97 -128 -166 -364 -151 -521 11 -113 3 -105 105 -105
77 0 93 -3 110 -20 27 -27 25 -66 -5 -95 -23 -24 -30 -25 -149 -25 l-124 0
-22 -35 c-28 -45 -21 -95 17 -125 25 -20 35 -20 885 -20 864 0 888 -1 910 -34
16 -23 8 -73 -15 -94 l-23 -22 -765 -2 -764 -3 -3 -222 -2 -223 980 0 980 0 0
220 0 220 -51 0 c-63 0 -117 24 -125 56 -10 41 4 71 42 89 31 14 61 17 197 14
l161 -4 19 33 c25 42 16 93 -20 122 -24 19 -39 20 -262 20 -130 0 -301 5 -381
10 -762 54 -1278 307 -1476 723 -20 43 -37 77 -39 77 -1 0 -14 -15 -29 -34z"/>
<path d="M2878 2688 l122 -123 122 123 123 122 -245 0 -245 0 123 -122z"/>
<path d="M3618 2688 l122 -123 122 123 123 122 -245 0 -245 0 123 -122z"/>
<path d="M3239 2583 c-65 -64 -119 -121 -119 -127 0 -6 56 -67 124 -135 l125
-124 58 51 c32 28 92 85 133 126 l75 76 -125 125 c-69 69 -131 125 -138 125
-8 0 -67 -52 -133 -117z"/>
<path d="M3936 2539 c-42 -39 -76 -76 -76 -83 0 -13 117 -132 123 -125 7 7 39
270 34 275 -2 3 -39 -27 -81 -67z"/>
<path d="M3617 2224 c-70 -69 -127 -128 -127 -132 0 -4 56 -63 125 -132 l125
-125 109 109 c92 92 111 116 116 149 7 38 5 42 -51 99 -33 33 -84 81 -114 108
l-55 48 -128 -124z"/>
<path d="M2884 2232 c-110 -106 -111 -107 -107 -147 4 -35 18 -53 106 -142 56
-57 106 -103 112 -103 6 0 67 57 137 128 l127 127 -129 123 c-70 67 -130 122
-132 122 -2 -1 -53 -49 -114 -108z"/>
<path d="M3243 1858 c-68 -68 -123 -128 -123 -133 0 -6 56 -66 125 -135 l124
-124 113 109 c62 59 123 118 136 130 l23 21 -126 125 c-69 68 -131 125 -138
127 -7 1 -67 -53 -134 -120z"/>
<path d="M2820 1763 c0 -17 3 -45 6 -62 l7 -32 23 22 c31 29 30 39 -6 74 l-30
29 0 -31z"/>
<path d="M3882 1757 c-28 -29 -28 -38 2 -66 l23 -22 7 23 c9 33 7 88 -2 88 -5
0 -18 -10 -30 -23z"/>
<path d="M2924 1538 l-70 -73 9 -77 9 -78 209 0 c115 0 209 3 209 7 0 8 -282
293 -290 293 -3 0 -37 -33 -76 -72z"/>
<path d="M3587 1467 c-81 -78 -147 -145 -147 -149 0 -5 96 -8 214 -8 l214 0
10 78 10 77 -71 73 c-40 39 -74 72 -77 71 -3 0 -71 -64 -153 -142z"/>
<path d="M2893 1118 c3 -24 9 -67 12 -95 l7 -53 458 0 457 0 7 63 c4 34 9 77
13 95 l5 32 -482 0 -482 0 5 -42z"/>
<path d="M2050 585 c14 -8 30 -14 35 -14 6 0 -1 6 -15 14 -14 8 -29 14 -35 14
-5 0 1 -6 15 -14z"/>
<path d="M3858 6853 c7 -3 16 -2 19 1 4 3 -2 6 -13 5 -11 0 -14 -3 -6 -6z"/>
<path d="M1800 6404 c-89 -49 -243 -151 -172 -115 29 15 234 139 240 146 11
11 -5 3 -68 -31z"/>
<path d="M5511 6216 c2 -2 44 -34 94 -70 140 -104 269 -221 363 -330 48 -55
110 -125 138 -156 28 -30 61 -75 73 -98 13 -24 25 -41 28 -38 3 3 -9 33 -26
67 -18 33 -30 63 -27 66 7 8 -189 212 -313 326 -124 115 -286 237 -313 237
-12 0 -19 -2 -17 -4z"/>
<path d="M435 4989 c-4 -6 -5 -12 -2 -15 2 -3 7 2 10 11 7 17 1 20 -8 4z"/>
<path d="M370 4129 c-7 -11 -10 -23 -7 -25 2 -2 9 7 15 21 14 30 7 33 -8 4z"/>
<path d="M6722 3720 c0 -14 2 -19 5 -12 2 6 2 18 0 25 -3 6 -5 1 -5 -13z"/>
<path d="M6721 3484 c0 -11 3 -14 6 -6 3 7 2 16 -1 19 -3 4 -6 -2 -5 -13z"/>
<path d="M204 3295 c0 -49 1 -71 3 -48 2 23 2 64 0 90 -2 26 -3 8 -3 -42z"/>
<path d="M331 3074 c0 -11 3 -14 6 -6 3 7 2 16 -1 19 -3 4 -6 -2 -5 -13z"/>
<path d="M6424 1958 l-19 -23 23 19 c12 11 22 21 22 23 0 8 -8 2 -26 -19z"/>
<path d="M656 1553 c9 -21 23 -56 31 -77 40 -111 534 -606 605 -606 18 0 19 2
7 16 -7 9 -54 49 -104 89 -117 94 -301 285 -391 405 -40 52 -81 103 -91 113
-11 10 -28 35 -38 57 -10 22 -22 40 -27 40 -4 0 -1 -17 8 -37z"/>
<path d="M5479 853 c-13 -17 -13 -17 6 -3 11 8 22 16 24 17 2 2 0 3 -6 3 -6 0
-17 -8 -24 -17z"/>
<path d="M5220 679 c-22 -18 -22 -19 -3 -10 12 6 25 16 28 21 9 15 3 12 -25
-11z"/>
<path d="M5085 600 c-3 -6 1 -7 9 -4 18 7 21 14 7 14 -6 0 -13 -4 -16 -10z"/>
<path d="M4792 459 c-30 -17 -52 -33 -49 -35 5 -6 41 10 92 41 58 36 20 30
-43 -6z"/>
<path d="M4594 361 c-222 -111 -334 -148 -654 -215 -130 -27 -105 -33 51 -11
235 33 380 75 499 145 36 21 103 59 150 85 94 53 98 55 83 55 -5 0 -63 -27
-129 -59z"/>
</g>
</svg>
